# xmcd
#
# Track frame offsets: 
#        150
#        1642
#        3883
#        13807
#        29375
#        31999
#        38594
#        61212
#        73068
#        74514
#        95445
#        114245
#        116251
#        154294
#        181249
#        201942
#        234345
#        240291
#        252139
#        268269
#        270502
#        295267
#        298440
#        301440
#        303841
#        306950
#        311464
#        313914
#        316252
#
# Disc length: 4267 seconds
#
# Revision: 2
# Processed by: cddbd v1.5.2PL0 Copyright (c) Steve Scherf et al.
# Submitted via: ExactAudioCopy v0.99pb1
#
DISCID=8a10a91d
DTITLE=Monty Python's Flying Circus - Monty Python's The Meaning Of Li
DTITLE=fe
DYEAR=2006
DGENRE=Soundtrack
TTITLE0=Intro (The Meaning Of Life)
TTITLE1=Fish (Morning)
TTITLE2=The Meaning Of Life
TTITLE3=(Part One) The Miracle Of Birth
TTITLE4=MP Link
TTITLE5=(Part 2) The Third World (Yorkshire)
TTITLE6=Every Sperm Is Sacred
TTITLE7=Bloody Catholics
TTITLE8=Link (Martin Luther)
TTITLE9=(Part Three) Growth And Learning
TTITLE10=(Part Four) FIghting Each Other
TTITLE11=Terry Gilliam Introduction
TTITLE12=Accountancy Shanty
TTITLE13=(Part Five) Live Organ Transplants (Galaxy Song)
TTITLE14=(Part Six) The Autumn Years (The Not Noel Coward Song)
TTITLE15=(Part Seven) Death (Christmas In Heaven)
TTITLE16=MP Link (Dedication To Fish)
TTITLE17=Intro Title Song Demo Meaning Of Life (Piano Version)
TTITLE18=Alternate Intro Title Song Meaning Of Life (Piano Version)
TTITLE19=Fat Song (Deleted Intro To Mr Creosote Sketch)
TTITLE20=Alternate Christmas In Heaven Song
TTITLE21=Radio Ad Philosophers Corner
TTITLE22=Radio Ad Officer
TTITLE23=Radio Ad German Translation
TTITLE24=Greasy Hair
TTITLE25=Dino Viccoti
TTITLE26=Stretch The Script
TTITLE27=Grand Prix
TTITLE28=Hard Of Thinking
EXTD=
EXTT0=
EXTT1=
EXTT2=
EXTT3=
EXTT4=
EXTT5=
EXTT6=
EXTT7=
EXTT8=
EXTT9=
EXTT10=
EXTT11=
EXTT12=
EXTT13=
EXTT14=
EXTT15=
EXTT16=
EXTT17=
EXTT18=
EXTT19=
EXTT20=
EXTT21=
EXTT22=
EXTT23=
EXTT24=
EXTT25=
EXTT26=
EXTT27=
EXTT28=
PLAYORDER=
